<svg xmlns="http://www.w3.org/2000/svg" width="1024" height="1024" viewBox="0 0 1024 1024" version="1.1"><path d="M 0 512.001 L 0 1024.002 512.250 1023.751 L 1024.500 1023.500 1024.751 511.750 L 1025.002 0 512.501 0 L 0 0 0 512.001 M 0.496 512.500 C 0.496 794.100, 0.610 909.151, 0.750 768.168 C 0.890 627.186, 0.890 396.786, 0.750 256.168 C 0.610 115.551, 0.496 230.900, 0.496 512.500 M 489.117 102.994 C 433.855 106.404, 383.031 119.521, 334.446 142.913 C 233.475 191.527, 156.730 279.477, 122.107 386.250 C 102.032 448.159, 97.252 517.050, 108.498 582.391 C 130.430 709.816, 212.478 819.943, 329.013 878.371 C 432.786 930.400, 554.727 935.672, 663 892.811 C 767.333 851.509, 851.509 767.333, 892.811 663 C 935.946 554.035, 930.265 430.598, 877.339 326.850 C 822.561 219.473, 724.950 142.199, 608.347 113.904 C 571.068 104.857, 525.902 100.725, 489.117 102.994 M 485.248 124.986 C 480.160 125.362, 475.847 125.857, 475.664 126.085 C 475.197 126.669, 478.918 180.251, 479.464 180.798 C 479.711 181.044, 485.107 180.921, 491.456 180.524 L 503 179.803 502.985 177.151 C 502.956 172.232, 501.867 171.632, 494.243 172.341 L 487.292 172.987 486.650 165.391 C 486.297 161.214, 486.258 157.392, 486.563 156.898 C 486.868 156.404, 489.566 156, 492.559 156 L 498 156 498 151.908 L 498 147.816 491.750 148.158 L 485.500 148.500 485.210 140.871 L 484.920 133.242 492.532 132.529 C 498.688 131.952, 500.034 131.531, 499.572 130.326 C 499.257 129.507, 499 127.748, 499 126.418 C 499 124.532, 498.505 124.033, 496.750 124.151 C 495.512 124.234, 490.337 124.609, 485.248 124.986 M 580.526 157.305 C 577.353 171.712, 574.698 183.927, 574.628 184.448 C 574.486 185.500, 595.662 190.671, 596.536 189.797 C 596.838 189.495, 597.336 187.705, 597.642 185.819 L 598.198 182.390 591.969 181.231 C 588.543 180.594, 585.487 179.821, 585.179 179.513 C 584.871 179.204, 586.882 168.725, 589.647 156.226 C 593.063 140.790, 594.327 133.304, 593.588 132.888 C 592.990 132.551, 591.104 132.013, 589.398 131.692 L 586.297 131.109 580.526 157.305 M 414.500 136.738 C 411.200 137.585, 408.370 138.383, 408.211 138.512 C 407.846 138.806, 420.977 191.311, 421.563 191.896 C 422.225 192.558, 436.006 189.048, 439.170 187.412 C 442.128 185.882, 445 181.357, 445 178.226 C 445 175.066, 437.098 144.090, 435.507 141.014 C 432.303 134.817, 426.549 133.646, 414.500 136.738 M 419.877 143.665 C 418.457 144.044, 418.848 146.462, 423.030 163.118 C 425.656 173.579, 427.961 182.284, 428.152 182.463 C 428.343 182.641, 430.075 182.273, 432 181.644 C 434.322 180.885, 435.601 179.793, 435.800 178.398 C 436.103 176.280, 429.787 149.432, 428.003 145.250 C 427.062 143.045, 424.254 142.497, 419.877 143.665 M 643.267 155.691 C 640.970 163.642, 641.218 164.947, 645.035 164.985 C 646.396 164.998, 653 153.478, 653 151.089 C 653 150.610, 651.917 149.945, 650.593 149.613 C 649.269 149.280, 647.581 148.776, 646.841 148.492 C 645.886 148.126, 644.850 150.212, 643.267 155.691 M 690.682 168.722 C 687.206 174.466, 664.014 216.331, 664.220 216.489 C 664.983 217.078, 678.912 224.951, 681.719 226.381 C 684.937 228.019, 684.939 228.018, 686.510 224.980 C 688.455 221.220, 688.065 220.574, 682 217.500 C 679.328 216.146, 676.852 214.569, 676.498 213.996 C 675.858 212.961, 682.538 200, 683.711 200 C 684.048 200, 686.343 201.183, 688.810 202.629 L 693.297 205.258 695.126 202.879 C 697.855 199.331, 697.470 198.380, 692.080 195.350 L 687.160 192.584 689.728 188.042 C 691.141 185.544, 692.901 182.510, 693.639 181.299 L 694.982 179.098 701.087 182.549 C 704.445 184.447, 707.516 186, 707.911 186 C 708.306 186, 709.337 184.517, 710.202 182.703 C 711.742 179.474, 711.720 179.376, 709.137 177.902 C 697.388 171.200, 691.081 168.063, 690.682 168.722 M 317 177.622 C 311.225 181.094, 306.126 184.074, 305.669 184.244 C 304.650 184.624, 308.149 190.985, 309.382 190.994 C 309.867 190.997, 311.735 190.091, 313.533 188.980 L 316.801 186.960 329.024 207.500 L 341.247 228.040 344.293 226.261 C 345.969 225.282, 347.487 224.036, 347.667 223.491 C 347.848 222.946, 342.821 213.780, 336.498 203.121 C 330.174 192.463, 325 183.387, 325 182.953 C 325 182.518, 326.569 181.193, 328.487 180.008 C 331.898 177.900, 331.942 177.789, 330.495 174.990 C 329.680 173.415, 328.674 171.943, 328.257 171.719 C 327.841 171.494, 322.775 174.151, 317 177.622 M 732.914 219.258 C 725.588 228.191, 717.670 237.787, 715.318 240.583 L 711.042 245.666 713.903 248.407 L 716.765 251.149 729.116 236.141 C 735.909 227.887, 741.575 221.242, 741.708 221.375 C 741.840 221.507, 738.360 229.464, 733.974 239.056 C 729.588 248.648, 726 256.975, 726 257.560 C 726 258.492, 731.243 263, 732.327 263 C 732.551 263, 739.846 254.338, 748.537 243.750 C 757.228 233.162, 765.012 223.708, 765.834 222.740 C 767.180 221.155, 767.095 220.730, 764.990 218.490 C 763.704 217.120, 762.364 216, 762.014 216 C 761.663 216, 756.969 221.400, 751.583 228 C 746.196 234.600, 741.636 240, 741.449 240 C 741.262 240, 744.010 233.612, 747.555 225.804 C 751.100 217.995, 754 211.058, 754 210.388 C 754 209.717, 752.253 207.784, 750.117 206.093 L 746.234 203.017 732.914 219.258 M 493.500 204.681 C 464.277 206.555, 429.602 214.207, 403.337 224.578 C 302.643 264.340, 224.850 360.156, 208.058 465.097 C 195.862 541.316, 213.069 616.501, 257.673 681.886 C 305.673 752.251, 376.835 800.133, 455.500 814.998 C 490.674 821.645, 532.033 821.811, 567 815.446 C 650.430 800.259, 725.036 748.363, 773.666 671.688 C 798.054 633.234, 813.212 590.539, 818.488 545.442 C 820.463 528.551, 820.446 496.410, 818.451 479 C 814.511 444.620, 805.594 414.347, 790.026 382.500 C 757.274 315.499, 700.851 260.150, 634.917 230.341 C 592.105 210.987, 540.683 201.656, 493.500 204.681 M 269.570 210.485 C 266.157 213.254, 265.283 211.627, 278.311 226.750 C 283.167 232.387, 286.883 237, 286.568 237 C 286.253 237, 280.099 232.967, 272.892 228.038 L 259.788 219.076 255.861 222.232 C 253.702 223.967, 252.157 225.968, 252.430 226.677 C 253.096 228.414, 287.169 268, 287.998 268 C 288.357 268, 289.704 266.880, 290.990 265.510 C 293.089 263.276, 293.177 262.840, 291.846 261.260 C 291.030 260.292, 286.150 254.550, 281 248.500 C 267.270 232.369, 267.883 233.208, 271.531 235.552 C 273.198 236.623, 280.793 241.709, 288.408 246.853 L 302.255 256.206 305.319 253.143 C 308.117 250.344, 308.250 249.925, 306.858 248.290 C 306.020 247.305, 298.396 238.423, 289.917 228.550 C 281.438 218.678, 274.050 210.039, 273.500 209.354 C 272.726 208.389, 271.837 208.645, 269.570 210.485 M 495 211.691 C 450.714 214.277, 405.800 227.525, 368.236 249.083 C 290.678 293.591, 232.812 372.852, 216.605 456.775 C 212.465 478.214, 211.568 488.291, 211.603 513 C 211.648 545.122, 214.725 566.302, 223.660 596 C 237.672 642.578, 266.943 690.377, 303.500 726.378 C 353.710 775.826, 415.563 805.179, 483.856 811.970 C 497.136 813.291, 527.797 813.295, 541.144 811.978 C 609.653 805.219, 670.979 775.827, 721.575 725.500 C 738.933 708.235, 750.201 694.509, 763.853 674 C 808.709 606.613, 823.784 526.860, 806.372 449.052 C 787.056 362.729, 723.905 282.551, 643.427 242.174 C 597.811 219.287, 546.252 208.698, 495 211.691 M 778.099 270.103 C 757.764 293.482, 758.978 290.794, 765.340 298.354 C 767.285 300.666, 768.099 301.016, 769.621 300.196 C 773.106 298.317, 814.494 272.867, 815.180 272.180 C 815.555 271.806, 814.763 270.232, 813.421 268.683 L 810.981 265.867 804.741 269.632 C 801.308 271.702, 792.927 276.922, 786.116 281.231 C 779.305 285.540, 773.610 288.939, 773.459 288.783 C 773.309 288.627, 779.664 281.137, 787.582 272.139 L 801.978 255.777 799.942 252.919 C 798.823 251.347, 797.560 249.846, 797.135 249.583 C 796.711 249.321, 788.145 258.555, 778.099 270.103 M 213.559 267.051 L 209.789 271.995 213.073 275.748 C 214.880 277.811, 223.307 287.232, 231.801 296.682 L 247.244 313.863 249.690 310.957 L 252.135 308.051 248.922 304.053 C 245.455 299.739, 245.432 299.893, 250.370 294.258 L 252.334 292.016 256.647 294.426 L 260.960 296.837 263.543 293.767 C 265.646 291.267, 265.882 290.476, 264.813 289.508 C 263.706 288.505, 225.790 266.530, 219.415 263.197 C 217.571 262.232, 216.894 262.678, 213.559 267.051 M 224.576 277.278 C 226.065 279.050, 230.191 283.642, 233.744 287.482 L 240.204 294.464 242.602 291.676 C 243.921 290.143, 244.992 288.576, 244.983 288.194 C 244.974 287.812, 239.769 284.475, 233.417 280.778 C 223.016 274.723, 222.138 274.375, 224.576 277.278 M 814.272 319.156 L 791.048 333.313 793.206 337.152 C 795.188 340.679, 795.532 340.883, 797.432 339.658 C 798.569 338.924, 809.299 332.349, 821.276 325.048 L 843.052 311.772 841.077 308.653 C 839.991 306.938, 838.741 305.414, 838.299 305.266 C 837.858 305.119, 827.045 311.370, 814.272 319.156 M 181.162 317.260 C 178.988 318.305, 169.990 332.197, 170.008 334.479 C 170.016 335.468, 215.920 361, 217.690 361 C 218.173 361, 219.407 359.580, 220.433 357.845 C 222.667 354.061, 222.777 354.176, 210.750 347.753 C 206.488 345.477, 203 343.059, 203 342.380 C 203 341.701, 204.156 340.236, 205.570 339.124 C 208.445 336.862, 210.009 337.171, 217.335 341.446 C 219.626 342.783, 222.735 344.342, 224.244 344.911 C 226.804 345.876, 227.116 345.694, 228.909 342.178 L 230.832 338.409 221.313 333.587 C 213.351 329.553, 211.156 328.850, 207.897 329.287 C 205.061 329.667, 204 329.448, 204 328.482 C 204 326.030, 199.216 321.436, 193.820 318.706 C 188.115 315.819, 184.917 315.454, 181.162 317.260 M 182.557 327.223 C 181.701 328.445, 181.003 329.907, 181.007 330.473 C 181.010 331.038, 184.231 333.253, 188.164 335.395 C 195.046 339.143, 195.367 339.218, 196.700 337.396 C 199.289 333.855, 197.926 330.732, 192.500 327.773 C 186.401 324.447, 184.572 324.346, 182.557 327.223 M 513.257 349.059 C 481.768 351.587, 461.799 368.451, 453.203 399.776 L 450.535 409.500 450.210 493.500 C 449.991 550.271, 450.243 580.628, 450.988 587.150 C 455.973 630.777, 477.494 653.965, 513 653.965 C 532.977 653.965, 551.547 644.946, 560 631.138 C 561.375 628.892, 562.796 627.042, 563.157 627.027 C 563.518 627.012, 565.960 632.400, 568.582 639 L 573.350 651 585.675 651 L 598 651 598 564 L 598 477 561 477 L 524 477 524 502.500 L 524 528 532.068 528 L 540.135 528 539.818 557.250 C 539.525 584.167, 539.340 586.812, 537.500 590.412 C 534.543 596.196, 530.878 598.500, 524.633 598.500 C 517.972 598.500, 514.469 596.250, 511.656 590.166 C 509.510 585.522, 509.499 585.104, 509.222 502.710 C 509.030 445.366, 509.279 418.678, 510.032 415.880 C 510.631 413.657, 512.611 410.213, 514.432 408.225 C 517.459 404.922, 518.298 404.576, 524.172 404.202 C 529.988 403.831, 530.902 404.046, 533.771 406.461 C 535.515 407.928, 537.451 410.787, 538.075 412.814 C 538.698 414.841, 539.441 424.712, 539.726 434.750 L 540.244 453 569.276 453 L 598.309 453 597.685 437.250 C 596.335 403.161, 590.177 382.031, 577.558 368.195 C 567.657 357.338, 553.410 350.717, 537.363 349.514 C 533.038 349.190, 527.925 348.788, 526 348.621 C 524.075 348.453, 518.341 348.650, 513.257 349.059 M 846 355.402 C 838.025 358.824, 826.935 363.538, 821.356 365.877 L 811.212 370.130 812.774 374.108 C 813.634 376.295, 814.823 377.894, 815.418 377.662 C 816.013 377.429, 820.693 375.520, 825.818 373.420 C 835.710 369.366, 836.947 369.496, 836.985 374.595 C 837.006 377.511, 834.574 379.399, 826.801 382.500 C 823.117 383.969, 819.692 385.696, 819.190 386.336 C 818.618 387.067, 818.885 388.842, 819.907 391.104 L 821.536 394.708 831.887 389.768 C 840.331 385.738, 842.443 384.287, 843.346 381.894 C 844.123 379.836, 844.908 379.154, 845.977 379.609 C 849.602 381.152, 851.888 381.014, 857.507 378.912 C 865.276 376.005, 869 372.325, 869 367.554 C 869 363.351, 863.240 348.958, 861.611 349.090 C 861 349.140, 853.975 351.981, 846 355.402 M 285.730 351.603 C 285.328 352.005, 285 419.533, 285 501.667 L 285 651 315.500 651 L 346 651 346 582.500 C 346 516.339, 346.064 514, 347.864 514 C 351.262 514, 360.464 515.973, 362.835 517.211 C 368.589 520.213, 368.475 518.852, 368.785 587.750 L 369.071 651 397.919 651 L 426.767 651 427.370 648.750 C 427.701 647.513, 427.979 619.684, 427.986 586.910 C 427.999 531.138, 427.875 526.833, 426.056 519.718 C 424.987 515.537, 423.411 510.761, 422.554 509.105 C 420.093 504.346, 414.273 499.304, 408.457 496.894 L 403.106 494.676 408.056 492.383 C 414.171 489.550, 421.861 481.998, 424.780 475.962 C 429.030 467.169, 431.095 456.424, 431.690 440 C 432.644 413.677, 429.595 390.266, 423.526 377.314 C 417.811 365.116, 409.867 358.111, 396.714 353.670 C 390.779 351.666, 388.168 351.556, 338.480 351.223 C 309.869 351.031, 286.131 351.202, 285.730 351.603 M 621.667 351.667 C 621.300 352.033, 621 419.533, 621 501.667 L 621 651 683 651 L 745 651 745 622 L 745 593 713.487 593 L 681.974 593 682.237 558.750 L 682.500 524.500 710.750 524.234 L 739 523.969 739 496 L 739 468.031 710.750 467.766 L 682.500 467.500 682.500 438.500 L 682.500 409.500 711.750 409.235 L 741 408.970 741 379.985 L 741 351 681.667 351 C 649.033 351, 622.033 351.300, 621.667 351.667 M 850.623 362.987 C 846.841 364.601, 843.561 366.105, 843.336 366.331 C 842.365 367.302, 845.528 372.094, 847.460 372.579 C 849.922 373.197, 857.907 370.022, 859.886 367.638 C 860.992 366.305, 861.013 365.446, 860 363.001 C 859.317 361.350, 858.474 360.012, 858.129 360.027 C 857.783 360.042, 854.405 361.374, 850.623 362.987 M 149.485 382.250 C 147.331 388.210, 146.022 392.345, 146.239 392.509 C 149.691 395.122, 195.440 417.954, 196.024 417.355 C 196.483 416.885, 197.155 415.299, 197.517 413.831 C 198.100 411.471, 197.697 410.891, 194.037 408.831 C 190.561 406.874, 189.974 406.099, 190.376 404 C 191.420 398.550, 192.963 395.855, 194.751 396.358 C 202.098 398.427, 202.576 398.308, 204.272 393.988 C 205.462 390.961, 205.571 389.792, 204.691 389.510 C 202.527 388.816, 154.153 381, 152.024 381 C 150.876 381, 149.734 381.563, 149.485 382.250 M 159 390.385 C 159 390.715, 164.369 393.676, 170.931 396.966 L 182.863 402.947 184.048 399.354 C 185.566 394.756, 185.464 394.697, 172.196 392.520 C 166.362 391.563, 161.006 390.556, 160.294 390.283 C 159.582 390.009, 159 390.056, 159 390.385 M 346 434.500 L 346 462 355.364 462 C 364.150 462, 364.890 461.837, 367.366 459.361 C 371.553 455.174, 373.001 448.411, 372.994 433.068 C 372.988 418.061, 372.004 412.913, 368.463 409.372 C 366.282 407.191, 365.283 407, 356.045 407 L 346 407 346 434.500 M 863 417.001 C 858.875 417.989, 851.900 419.587, 847.500 420.552 C 841.020 421.974, 838.860 422.947, 836.131 425.673 C 832.916 428.884, 832.782 429.311, 833.195 435.020 C 833.548 439.906, 834.152 441.549, 836.489 443.989 C 838.063 445.631, 840.762 447.240, 842.487 447.564 C 845.507 448.130, 875.051 442.227, 881.270 439.815 C 890.081 436.398, 891.754 424.310, 884.364 417.462 C 882.159 415.418, 880.756 415.017, 876.104 415.103 C 873.022 415.159, 867.125 416.014, 863 417.001 M 858.783 426.861 C 850.139 428.862, 842.563 431.011, 841.948 431.635 C 841.334 432.259, 840.981 433.788, 841.165 435.033 C 841.841 439.600, 843.823 439.661, 861.655 435.659 C 870.875 433.590, 878.999 431.415, 879.709 430.826 C 881.332 429.480, 881.382 425.782, 879.800 424.200 C 878.138 422.538, 876.629 422.729, 858.783 426.861 M 138.315 442.406 C 129.679 446.318, 129.328 461.015, 137.765 465.378 C 141.500 467.310, 174.421 472.199, 178.517 471.431 C 183.511 470.494, 187.197 466.040, 187.730 460.297 C 188.646 450.434, 184.770 446.860, 171.126 444.988 C 157.511 443.120, 158.690 442.772, 157.773 448.930 C 156.877 454.952, 157.515 455.958, 162.250 455.985 C 164.140 455.995, 165 455.486, 165 454.358 C 165 452.943, 165.852 452.804, 171.148 453.358 C 178.048 454.079, 180 455.213, 180 458.500 C 180 463.377, 178.246 463.567, 159.218 460.752 C 145.581 458.735, 141.285 457.742, 140.289 456.380 C 138.576 454.038, 138.656 453.344, 140.890 451.110 C 142.373 449.627, 143.744 449.330, 147.267 449.727 L 151.754 450.232 152.235 446.366 C 152.500 444.240, 152.644 442.402, 152.557 442.282 C 152.469 442.162, 149.946 441.816, 146.949 441.513 C 143.281 441.143, 140.459 441.434, 138.315 442.406 M 861 481.050 C 853.025 481.434, 845.263 481.805, 843.750 481.874 C 841.231 481.989, 841 482.335, 841 485.987 L 841 489.974 848.250 489.508 C 861.668 488.646, 880.338 487.996, 879.917 488.406 C 879.688 488.630, 871.175 491.381, 861 494.519 C 850.825 497.658, 842.269 500.361, 841.986 500.526 C 841.703 500.691, 841.626 502.778, 841.816 505.163 L 842.159 509.500 869.330 508.358 C 884.273 507.729, 896.612 507.167, 896.750 507.108 C 896.888 507.048, 897 505.357, 897 503.349 L 897 499.699 881.260 500.273 C 872.604 500.589, 866.191 500.508, 867.010 500.092 C 867.830 499.677, 874.913 497.359, 882.750 494.942 L 897 490.547 897 486.855 C 897 480.038, 896.902 479.981, 885.643 480.175 C 880.064 480.272, 868.975 480.665, 861 481.050 M 839.557 545.549 C 839.180 547.560, 839.013 549.345, 839.186 549.516 C 839.358 549.688, 847.825 551.031, 858 552.500 C 874.899 554.941, 879.743 555.902, 875.917 556.057 C 875.137 556.089, 866.181 557.113, 856.013 558.334 L 837.525 560.553 836.857 564.527 C 836.489 566.712, 836.483 568.786, 836.844 569.136 C 837.864 570.125, 889.060 577.191, 890.685 576.567 C 891.634 576.203, 892.020 574.898, 891.814 572.757 L 891.500 569.500 876.500 567.391 C 868.250 566.232, 862.175 565.038, 863 564.740 C 863.825 564.441, 871.025 563.438, 879 562.511 C 886.975 561.583, 893.583 560.743, 893.685 560.644 C 893.786 560.545, 894.176 558.157, 894.550 555.337 C 895.360 549.231, 898.497 550.314, 867.500 546 C 855.400 544.316, 844.317 542.703, 842.871 542.416 C 840.500 541.945, 840.175 542.252, 839.557 545.549 M 156 549.047 C 128.554 553.262, 131 552.534, 131 556.486 C 131 558.354, 131.402 560.130, 131.892 560.434 C 132.383 560.737, 141.721 559.619, 152.642 557.950 C 163.564 556.281, 174.075 555.047, 176 555.208 C 179.144 555.470, 179.532 555.830, 179.813 558.743 C 180.064 561.345, 179.669 562.177, 177.813 562.956 C 176.541 563.490, 166.076 565.305, 154.557 566.990 C 143.038 568.675, 133.505 570.162, 133.371 570.296 C 133.238 570.429, 133.381 572.420, 133.689 574.719 C 134.207 578.583, 134.449 578.864, 136.875 578.429 C 138.319 578.170, 147.150 576.841, 156.500 575.475 C 179.929 572.052, 182.511 571.370, 185.494 567.825 C 189.090 563.551, 189.062 555.416, 185.436 551.106 C 183.348 548.625, 177.200 545.680, 175 546.108 C 174.725 546.162, 166.175 547.484, 156 549.047 M 170.188 610.925 C 156.266 615.715, 144.899 620.054, 144.927 620.567 C 145.015 622.158, 146.869 627, 147.390 627 C 147.662 627, 154.284 624.749, 162.106 621.997 C 169.928 619.246, 176.446 617.113, 176.591 617.258 C 176.797 617.463, 165.833 625.035, 150.709 635.133 C 149.903 635.671, 152.516 646, 153.459 646 C 153.690 646, 199.316 630.444, 204.675 628.538 C 205.556 628.225, 205.576 627.230, 204.757 624.560 C 204.156 622.602, 203.357 621, 202.981 621 C 202.606 621, 194.518 623.712, 185.008 627.026 C 175.499 630.340, 167.551 632.884, 167.346 632.679 C 167.070 632.403, 188.301 617.882, 199.140 610.934 C 200.179 610.268, 197.764 602.705, 196.419 602.414 C 195.913 602.305, 184.110 606.135, 170.188 610.925 M 824.936 611.750 C 823.160 617.112, 821.517 622.017, 821.285 622.650 C 820.909 623.675, 827.697 626.714, 828.431 625.850 C 828.595 625.657, 829.736 622.432, 830.968 618.683 C 832.286 614.671, 833.679 612.039, 834.354 612.287 C 834.984 612.518, 838.504 613.699, 842.177 614.911 L 848.853 617.114 846.924 622.721 C 845.863 625.805, 845.108 628.413, 845.247 628.516 C 845.892 628.994, 852.348 630.980, 852.527 630.755 C 852.639 630.615, 853.502 628.138, 854.446 625.250 C 855.389 622.362, 856.487 620, 856.886 620 C 857.580 620, 870.235 624.084, 870.748 624.474 C 870.884 624.578, 869.906 627.865, 868.575 631.779 L 866.155 638.896 869.644 640.048 C 871.564 640.681, 873.336 640.998, 873.582 640.751 C 874.781 639.552, 880.904 619.514, 880.251 618.926 C 879.314 618.083, 830.932 602, 829.332 602 C 828.690 602, 826.712 606.388, 824.936 611.750 M 808.154 654.371 C 804.266 659.308, 804.064 659.084, 820.995 668.559 C 829.733 673.450, 836.783 677.551, 836.661 677.672 C 836.539 677.794, 829.051 675.218, 820.020 671.947 C 810.990 668.676, 803.088 666, 802.461 666 C 801.834 666, 800.701 667.237, 799.943 668.750 C 799.184 670.263, 798.421 671.775, 798.245 672.110 C 798.070 672.446, 804.468 677.768, 812.463 683.938 C 826.748 694.960, 830.182 698.083, 823.750 694.203 C 821.962 693.124, 815.100 689.208, 808.500 685.500 C 801.900 681.792, 796.169 678.565, 795.765 678.329 C 795.361 678.094, 794.132 679.378, 793.034 681.184 C 791.470 683.756, 791.304 684.706, 792.269 685.576 C 792.946 686.185, 803.802 692.416, 816.392 699.421 C 834.075 709.259, 839.489 711.855, 840.181 710.829 C 842.889 706.815, 845.055 701.658, 844.331 700.951 C 843.874 700.505, 837.025 695.159, 829.112 689.070 C 821.199 682.982, 815.079 678, 815.513 678 C 815.947 678, 823.701 680.700, 832.744 684 C 841.787 687.300, 849.776 690, 850.498 690 C 852.225 690, 857.448 681.044, 856.350 679.964 C 855.883 679.504, 845.047 673.304, 832.272 666.185 C 816.050 657.147, 808.775 653.583, 808.154 654.371 M 195.500 671.107 C 182.850 678.265, 172.133 684.485, 171.684 684.928 C 171.234 685.371, 171.712 687.123, 172.746 688.822 L 174.624 691.911 186.930 684.879 C 193.698 681.011, 199.970 677.584, 200.868 677.264 C 201.766 676.943, 197.136 681.830, 190.580 688.123 L 178.660 699.564 181.425 704.282 C 182.946 706.877, 184.332 709, 184.505 709 C 184.768 709, 207.762 696.147, 227.692 684.860 L 232.885 681.919 230.908 678.569 L 228.931 675.218 213.716 683.718 C 205.347 688.393, 198.073 692.619, 197.550 693.109 C 197.028 693.599, 196.128 693.979, 195.550 693.953 C 194.973 693.927, 201.004 687.678, 208.953 680.066 L 223.406 666.226 221.551 662.113 C 220.531 659.851, 219.427 658.020, 219.098 658.045 C 218.769 658.070, 208.150 663.948, 195.500 671.107 M 764.162 720.580 C 760.223 725.332, 757 729.535, 757 729.921 C 757 730.308, 758.301 731.586, 759.891 732.761 L 762.782 734.899 767.130 729.449 C 769.522 726.452, 771.862 724, 772.330 724 C 773.543 724, 784 733.066, 784 734.119 C 784 734.600, 782.438 736.724, 780.528 738.837 L 777.056 742.680 779.956 745.457 L 782.855 748.235 786.177 744.478 C 788.005 742.412, 789.792 740.269, 790.149 739.716 C 790.775 738.744, 802 747.624, 802 749.091 C 802 749.482, 799.979 752.209, 797.509 755.151 L 793.017 760.500 795.564 762.750 C 796.965 763.987, 798.465 765, 798.896 765 C 799.617 765, 811.672 751.057, 813.328 748.309 C 813.788 747.545, 806.671 740.902, 793.507 729.809 C 782.210 720.289, 772.598 712.374, 772.146 712.221 C 771.694 712.067, 768.101 715.829, 764.162 720.580 M 244.500 714.215 C 240.790 716.355, 215.511 737.827, 214.250 739.909 C 210.760 745.672, 214.325 754.931, 221.361 758.379 C 224.562 759.948, 225.799 760.077, 228.848 759.163 C 232.078 758.195, 248.456 745.496, 257.869 736.662 C 265.104 729.872, 265.141 723.070, 257.977 716.598 C 253.712 712.745, 248.612 711.843, 244.500 714.215 M 249.159 721.727 C 247.168 722.470, 222.640 742.953, 221.639 744.708 C 220.304 747.051, 222.565 751.003, 225.229 750.984 C 226.642 750.974, 232.602 746.714, 241 739.711 C 251.325 731.101, 254.500 727.900, 254.500 726.099 C 254.500 723.537, 251.309 720.925, 249.159 721.727 M 730.591 755.250 L 728.070 757.500 740.129 771.823 C 746.762 779.700, 752.033 786.294, 751.844 786.476 C 751.655 786.658, 744.559 781.900, 736.077 775.903 C 727.594 769.906, 720.169 765.014, 719.577 765.032 C 718.984 765.049, 717.220 766.189, 715.655 767.565 L 712.810 770.067 717.346 775.577 C 719.841 778.607, 727.850 788.225, 735.145 796.950 L 748.408 812.814 751.149 810.657 C 752.656 809.471, 753.914 808.257, 753.945 807.960 C 753.975 807.664, 750.063 802.681, 745.250 796.887 C 740.438 791.094, 735.825 785.504, 735 784.466 C 733.609 782.716, 743.328 789.164, 755.784 798.257 L 761.069 802.114 765.092 798.927 C 767.377 797.117, 768.894 795.165, 768.603 794.407 C 767.838 792.415, 734.798 753, 733.892 753 C 733.463 753, 731.977 754.013, 730.591 755.250 M 287.500 756.109 C 284.494 757.835, 276.992 765.268, 277.055 766.458 C 277.086 767.031, 278.397 768.514, 279.968 769.754 L 282.826 772.008 286.040 767.950 C 289.674 763.361, 293.210 762.889, 295.700 766.662 C 297.046 768.701, 296.497 769.577, 285.972 782.162 C 279.837 789.498, 273.983 795.895, 272.964 796.378 C 270.620 797.489, 268.426 796.664, 267.091 794.171 C 266.257 792.612, 266.631 791.429, 268.990 788.173 L 271.928 784.117 268.866 781.541 L 265.805 778.965 262.411 783.233 C 258.012 788.764, 257.132 793.233, 259.556 797.733 C 261.440 801.233, 268.292 806, 271.437 806 C 275.658 806, 280.355 802.202, 289.642 791.281 C 305.629 772.478, 306.979 769.728, 303.515 763.029 C 300.531 757.259, 291.953 753.552, 287.500 756.109 M 333.078 789.112 C 330.820 792.825, 330.473 792.358, 339.264 797.448 L 344.028 800.207 340.870 805.853 C 336.004 814.551, 335.916 814.603, 331.144 811.591 C 328.886 810.166, 326.633 809, 326.135 809 C 325.174 809, 321.999 813.390, 322.001 814.715 C 322.002 815.147, 324.214 816.742, 326.917 818.261 L 331.833 821.021 328.166 827.481 C 326.150 831.034, 324.126 833.954, 323.668 833.970 C 323.211 833.987, 320.117 832.406, 316.793 830.458 C 313.470 828.510, 310.639 827.048, 310.502 827.208 C 310.366 827.369, 309.524 828.937, 308.631 830.694 L 307.007 833.887 316.448 839.444 C 321.640 842.500, 326.315 845, 326.837 845 C 327.744 845, 355 799.705, 355 798.197 C 355 797.519, 351.695 795.427, 339.782 788.565 L 335.064 785.847 333.078 789.112 M 676.250 793.985 C 674.462 795.077, 673 796.214, 673 796.511 C 673 796.808, 678.175 806.086, 684.500 817.129 C 690.825 828.171, 696 837.356, 696 837.539 C 696 837.722, 694.248 838.857, 692.107 840.060 L 688.214 842.248 690.222 845.652 L 692.230 849.055 696.365 846.675 C 711.823 837.776, 715 835.855, 715 835.406 C 715 834.574, 711.982 829, 711.531 829 C 711.302 829, 709.494 829.956, 707.514 831.124 C 705.535 832.292, 703.761 833.080, 703.574 832.874 C 703.386 832.668, 698.478 824.175, 692.666 814 C 678.876 789.858, 680.254 791.539, 676.250 793.985 M 381.505 819.750 C 378.315 828.610, 377.264 835.664, 378.892 837.292 C 380.454 838.854, 380.268 840, 378.452 840 C 375.804 840, 372.193 844.910, 370.005 851.484 C 367.551 858.858, 368.014 861.993, 372.059 865.397 C 374.861 867.754, 388.715 873.618, 389.538 872.795 C 390.856 871.477, 408.905 821.520, 408.268 820.954 C 407.846 820.580, 406.070 819.796, 404.323 819.214 L 401.147 818.155 397.444 827.828 C 395.408 833.147, 393.418 837.859, 393.023 838.298 C 392.065 839.362, 387.257 837.113, 386.550 835.269 C 386.242 834.466, 387.342 829.932, 388.995 825.193 C 390.648 820.453, 392 816.198, 392 815.737 C 392 815.049, 386.027 812, 384.680 812 C 384.469 812, 383.040 815.487, 381.505 819.750 M 626.250 817.247 C 624.462 817.820, 623 818.682, 623 819.163 C 623 819.811, 634.147 850.686, 638.713 862.685 C 638.978 863.380, 637.476 864.376, 635.082 865.094 C 632.819 865.772, 631 866.944, 631 867.724 C 631 868.851, 632.507 872.532, 633.466 873.747 C 633.573 873.883, 639.025 872.012, 645.581 869.590 C 657.030 865.359, 657.492 865.077, 657.290 862.433 C 656.978 858.349, 655.724 857.606, 651.500 859 C 649.474 859.669, 647.471 859.830, 647.051 859.358 C 646.630 858.886, 642.779 848.938, 638.492 837.250 C 634.206 825.563, 630.430 816.046, 630.100 816.102 C 629.770 816.158, 628.038 816.673, 626.250 817.247 M 382.330 845.732 C 380.561 846.922, 376.962 856.739, 377.644 858.515 C 377.973 859.373, 379.521 860.735, 381.083 861.543 C 383.662 862.876, 384.004 862.850, 384.801 861.256 C 386.624 857.609, 390.249 846.916, 389.811 846.478 C 388.853 845.520, 383.448 844.981, 382.330 845.732" stroke="none" fill="#fbfbfb" fill-rule="evenodd"/><path d="M 489.117 102.994 C 433.855 106.404, 383.031 119.521, 334.446 142.913 C 233.475 191.527, 156.730 279.477, 122.107 386.250 C 102.032 448.159, 97.252 517.050, 108.498 582.391 C 130.430 709.816, 212.478 819.943, 329.013 878.371 C 432.786 930.400, 554.727 935.672, 663 892.811 C 767.333 851.509, 851.509 767.333, 892.811 663 C 935.946 554.035, 930.265 430.598, 877.339 326.850 C 822.561 219.473, 724.950 142.199, 608.347 113.904 C 571.068 104.857, 525.902 100.725, 489.117 102.994 M 485.248 124.986 C 480.160 125.362, 475.847 125.857, 475.664 126.085 C 475.197 126.669, 478.918 180.251, 479.464 180.798 C 479.711 181.044, 485.107 180.921, 491.456 180.524 L 503 179.803 502.985 177.151 C 502.956 172.232, 501.867 171.632, 494.243 172.341 L 487.292 172.987 486.650 165.391 C 486.297 161.214, 486.258 157.392, 486.563 156.898 C 486.868 156.404, 489.566 156, 492.559 156 L 498 156 498 151.908 L 498 147.816 491.750 148.158 L 485.500 148.500 485.210 140.871 L 484.920 133.242 492.532 132.529 C 498.688 131.952, 500.034 131.531, 499.572 130.326 C 499.257 129.507, 499 127.748, 499 126.418 C 499 124.532, 498.505 124.033, 496.750 124.151 C 495.512 124.234, 490.337 124.609, 485.248 124.986 M 580.526 157.305 C 577.353 171.712, 574.698 183.927, 574.628 184.448 C 574.486 185.500, 595.662 190.671, 596.536 189.797 C 596.838 189.495, 597.336 187.705, 597.642 185.819 L 598.198 182.390 591.969 181.231 C 588.543 180.594, 585.487 179.821, 585.179 179.513 C 584.871 179.204, 586.882 168.725, 589.647 156.226 C 593.063 140.790, 594.327 133.304, 593.588 132.888 C 592.990 132.551, 591.104 132.013, 589.398 131.692 L 586.297 131.109 580.526 157.305 M 414.500 136.738 C 411.200 137.585, 408.370 138.383, 408.211 138.512 C 407.846 138.806, 420.977 191.311, 421.563 191.896 C 422.225 192.558, 436.006 189.048, 439.170 187.412 C 442.128 185.882, 445 181.357, 445 178.226 C 445 175.066, 437.098 144.090, 435.507 141.014 C 432.303 134.817, 426.549 133.646, 414.500 136.738 M 419.877 143.665 C 418.457 144.044, 418.848 146.462, 423.030 163.118 C 425.656 173.579, 427.961 182.284, 428.152 182.463 C 428.343 182.641, 430.075 182.273, 432 181.644 C 434.322 180.885, 435.601 179.793, 435.800 178.398 C 436.103 176.280, 429.787 149.432, 428.003 145.250 C 427.062 143.045, 424.254 142.497, 419.877 143.665 M 643.267 155.691 C 640.970 163.642, 641.218 164.947, 645.035 164.985 C 646.396 164.998, 653 153.478, 653 151.089 C 653 150.610, 651.917 149.945, 650.593 149.613 C 649.269 149.280, 647.581 148.776, 646.841 148.492 C 645.886 148.126, 644.850 150.212, 643.267 155.691 M 690.682 168.722 C 687.206 174.466, 664.014 216.331, 664.220 216.489 C 664.983 217.078, 678.912 224.951, 681.719 226.381 C 684.937 228.019, 684.939 228.018, 686.510 224.980 C 688.455 221.220, 688.065 220.574, 682 217.500 C 679.328 216.146, 676.852 214.569, 676.498 213.996 C 675.858 212.961, 682.538 200, 683.711 200 C 684.048 200, 686.343 201.183, 688.810 202.629 L 693.297 205.258 695.126 202.879 C 697.855 199.331, 697.470 198.380, 692.080 195.350 L 687.160 192.584 689.728 188.042 C 691.141 185.544, 692.901 182.510, 693.639 181.299 L 694.982 179.098 701.087 182.549 C 704.445 184.447, 707.516 186, 707.911 186 C 708.306 186, 709.337 184.517, 710.202 182.703 C 711.742 179.474, 711.720 179.376, 709.137 177.902 C 697.388 171.200, 691.081 168.063, 690.682 168.722 M 317 177.622 C 311.225 181.094, 306.126 184.074, 305.669 184.244 C 304.650 184.624, 308.149 190.985, 309.382 190.994 C 309.867 190.997, 311.735 190.091, 313.533 188.980 L 316.801 186.960 329.024 207.500 L 341.247 228.040 344.293 226.261 C 345.969 225.282, 347.487 224.036, 347.667 223.491 C 347.848 222.946, 342.821 213.780, 336.498 203.121 C 330.174 192.463, 325 183.387, 325 182.953 C 325 182.518, 326.569 181.193, 328.487 180.008 C 331.898 177.900, 331.942 177.789, 330.495 174.990 C 329.680 173.415, 328.674 171.943, 328.257 171.719 C 327.841 171.494, 322.775 174.151, 317 177.622 M 732.914 219.258 C 725.588 228.191, 717.670 237.787, 715.318 240.583 L 711.042 245.666 713.903 248.407 L 716.765 251.149 729.116 236.141 C 735.909 227.887, 741.575 221.242, 741.708 221.375 C 741.840 221.507, 738.360 229.464, 733.974 239.056 C 729.588 248.648, 726 256.975, 726 257.560 C 726 258.492, 731.243 263, 732.327 263 C 732.551 263, 739.846 254.338, 748.537 243.750 C 757.228 233.162, 765.012 223.708, 765.834 222.740 C 767.180 221.155, 767.095 220.730, 764.990 218.490 C 763.704 217.120, 762.364 216, 762.014 216 C 761.663 216, 756.969 221.400, 751.583 228 C 746.196 234.600, 741.636 240, 741.449 240 C 741.262 240, 744.010 233.612, 747.555 225.804 C 751.100 217.995, 754 211.058, 754 210.388 C 754 209.717, 752.253 207.784, 750.117 206.093 L 746.234 203.017 732.914 219.258 M 493.500 204.681 C 464.277 206.555, 429.602 214.207, 403.337 224.578 C 302.643 264.340, 224.850 360.156, 208.058 465.097 C 195.862 541.316, 213.069 616.501, 257.673 681.886 C 305.673 752.251, 376.835 800.133, 455.500 814.998 C 490.674 821.645, 532.033 821.811, 567 815.446 C 650.430 800.259, 725.036 748.363, 773.666 671.688 C 798.054 633.234, 813.212 590.539, 818.488 545.442 C 820.463 528.551, 820.446 496.410, 818.451 479 C 814.511 444.620, 805.594 414.347, 790.026 382.500 C 757.274 315.499, 700.851 260.150, 634.917 230.341 C 592.105 210.987, 540.683 201.656, 493.500 204.681 M 269.570 210.485 C 266.157 213.254, 265.283 211.627, 278.311 226.750 C 283.167 232.387, 286.883 237, 286.568 237 C 286.253 237, 280.099 232.967, 272.892 228.038 L 259.788 219.076 255.861 222.232 C 253.702 223.967, 252.157 225.968, 252.430 226.677 C 253.096 228.414, 287.169 268, 287.998 268 C 288.357 268, 289.704 266.880, 290.990 265.510 C 293.089 263.276, 293.177 262.840, 291.846 261.260 C 291.030 260.292, 286.150 254.550, 281 248.500 C 267.270 232.369, 267.883 233.208, 271.531 235.552 C 273.198 236.623, 280.793 241.709, 288.408 246.853 L 302.255 256.206 305.319 253.143 C 308.117 250.344, 308.250 249.925, 306.858 248.290 C 306.020 247.305, 298.396 238.423, 289.917 228.550 C 281.438 218.678, 274.050 210.039, 273.500 209.354 C 272.726 208.389, 271.837 208.645, 269.570 210.485 M 495 211.691 C 450.714 214.277, 405.800 227.525, 368.236 249.083 C 290.678 293.591, 232.812 372.852, 216.605 456.775 C 212.465 478.214, 211.568 488.291, 211.603 513 C 211.648 545.122, 214.725 566.302, 223.660 596 C 237.672 642.578, 266.943 690.377, 303.500 726.378 C 353.710 775.826, 415.563 805.179, 483.856 811.970 C 497.136 813.291, 527.797 813.295, 541.144 811.978 C 609.653 805.219, 670.979 775.827, 721.575 725.500 C 738.933 708.235, 750.201 694.509, 763.853 674 C 808.709 606.613, 823.784 526.860, 806.372 449.052 C 787.056 362.729, 723.905 282.551, 643.427 242.174 C 597.811 219.287, 546.252 208.698, 495 211.691 M 778.099 270.103 C 757.764 293.482, 758.978 290.794, 765.340 298.354 C 767.285 300.666, 768.099 301.016, 769.621 300.196 C 773.106 298.317, 814.494 272.867, 815.180 272.180 C 815.555 271.806, 814.763 270.232, 813.421 268.683 L 810.981 265.867 804.741 269.632 C 801.308 271.702, 792.927 276.922, 786.116 281.231 C 779.305 285.540, 773.610 288.939, 773.459 288.783 C 773.309 288.627, 779.664 281.137, 787.582 272.139 L 801.978 255.777 799.942 252.919 C 798.823 251.347, 797.560 249.846, 797.135 249.583 C 796.711 249.321, 788.145 258.555, 778.099 270.103 M 213.559 267.051 L 209.789 271.995 213.073 275.748 C 214.880 277.811, 223.307 287.232, 231.801 296.682 L 247.244 313.863 249.690 310.957 L 252.135 308.051 248.922 304.053 C 245.455 299.739, 245.432 299.893, 250.370 294.258 L 252.334 292.016 256.647 294.426 L 260.960 296.837 263.543 293.767 C 265.646 291.267, 265.882 290.476, 264.813 289.508 C 263.706 288.505, 225.790 266.530, 219.415 263.197 C 217.571 262.232, 216.894 262.678, 213.559 267.051 M 224.576 277.278 C 226.065 279.050, 230.191 283.642, 233.744 287.482 L 240.204 294.464 242.602 291.676 C 243.921 290.143, 244.992 288.576, 244.983 288.194 C 244.974 287.812, 239.769 284.475, 233.417 280.778 C 223.016 274.723, 222.138 274.375, 224.576 277.278 M 814.272 319.156 L 791.048 333.313 793.206 337.152 C 795.188 340.679, 795.532 340.883, 797.432 339.658 C 798.569 338.924, 809.299 332.349, 821.276 325.048 L 843.052 311.772 841.077 308.653 C 839.991 306.938, 838.741 305.414, 838.299 305.266 C 837.858 305.119, 827.045 311.370, 814.272 319.156 M 181.162 317.260 C 178.988 318.305, 169.990 332.197, 170.008 334.479 C 170.016 335.468, 215.920 361, 217.690 361 C 218.173 361, 219.407 359.580, 220.433 357.845 C 222.667 354.061, 222.777 354.176, 210.750 347.753 C 206.488 345.477, 203 343.059, 203 342.380 C 203 341.701, 204.156 340.236, 205.570 339.124 C 208.445 336.862, 210.009 337.171, 217.335 341.446 C 219.626 342.783, 222.735 344.342, 224.244 344.911 C 226.804 345.876, 227.116 345.694, 228.909 342.178 L 230.832 338.409 221.313 333.587 C 213.351 329.553, 211.156 328.850, 207.897 329.287 C 205.061 329.667, 204 329.448, 204 328.482 C 204 326.030, 199.216 321.436, 193.820 318.706 C 188.115 315.819, 184.917 315.454, 181.162 317.260 M 182.557 327.223 C 181.701 328.445, 181.003 329.907, 181.007 330.473 C 181.010 331.038, 184.231 333.253, 188.164 335.395 C 195.046 339.143, 195.367 339.218, 196.700 337.396 C 199.289 333.855, 197.926 330.732, 192.500 327.773 C 186.401 324.447, 184.572 324.346, 182.557 327.223 M 513.257 349.059 C 481.768 351.587, 461.799 368.451, 453.203 399.776 L 450.535 409.500 450.210 493.500 C 449.991 550.271, 450.243 580.628, 450.988 587.150 C 455.973 630.777, 477.494 653.965, 513 653.965 C 532.977 653.965, 551.547 644.946, 560 631.138 C 561.375 628.892, 562.796 627.042, 563.157 627.027 C 563.518 627.012, 565.960 632.400, 568.582 639 L 573.350 651 585.675 651 L 598 651 598 564 L 598 477 561 477 L 524 477 524 502.500 L 524 528 532.068 528 L 540.135 528 539.818 557.250 C 539.525 584.167, 539.340 586.812, 537.500 590.412 C 534.543 596.196, 530.878 598.500, 524.633 598.500 C 517.972 598.500, 514.469 596.250, 511.656 590.166 C 509.510 585.522, 509.499 585.104, 509.222 502.710 C 509.030 445.366, 509.279 418.678, 510.032 415.880 C 510.631 413.657, 512.611 410.213, 514.432 408.225 C 517.459 404.922, 518.298 404.576, 524.172 404.202 C 529.988 403.831, 530.902 404.046, 533.771 406.461 C 535.515 407.928, 537.451 410.787, 538.075 412.814 C 538.698 414.841, 539.441 424.712, 539.726 434.750 L 540.244 453 569.276 453 L 598.309 453 597.685 437.250 C 596.335 403.161, 590.177 382.031, 577.558 368.195 C 567.657 357.338, 553.410 350.717, 537.363 349.514 C 533.038 349.190, 527.925 348.788, 526 348.621 C 524.075 348.453, 518.341 348.650, 513.257 349.059 M 846 355.402 C 838.025 358.824, 826.935 363.538, 821.356 365.877 L 811.212 370.130 812.774 374.108 C 813.634 376.295, 814.823 377.894, 815.418 377.662 C 816.013 377.429, 820.693 375.520, 825.818 373.420 C 835.710 369.366, 836.947 369.496, 836.985 374.595 C 837.006 377.511, 834.574 379.399, 826.801 382.500 C 823.117 383.969, 819.692 385.696, 819.190 386.336 C 818.618 387.067, 818.885 388.842, 819.907 391.104 L 821.536 394.708 831.887 389.768 C 840.331 385.738, 842.443 384.287, 843.346 381.894 C 844.123 379.836, 844.908 379.154, 845.977 379.609 C 849.602 381.152, 851.888 381.014, 857.507 378.912 C 865.276 376.005, 869 372.325, 869 367.554 C 869 363.351, 863.240 348.958, 861.611 349.090 C 861 349.140, 853.975 351.981, 846 355.402 M 285.730 351.603 C 285.328 352.005, 285 419.533, 285 501.667 L 285 651 315.500 651 L 346 651 346 582.500 C 346 516.339, 346.064 514, 347.864 514 C 351.262 514, 360.464 515.973, 362.835 517.211 C 368.589 520.213, 368.475 518.852, 368.785 587.750 L 369.071 651 397.919 651 L 426.767 651 427.370 648.750 C 427.701 647.513, 427.979 619.684, 427.986 586.910 C 427.999 531.138, 427.875 526.833, 426.056 519.718 C 424.987 515.537, 423.411 510.761, 422.554 509.105 C 420.093 504.346, 414.273 499.304, 408.457 496.894 L 403.106 494.676 408.056 492.383 C 414.171 489.550, 421.861 481.998, 424.780 475.962 C 429.030 467.169, 431.095 456.424, 431.690 440 C 432.644 413.677, 429.595 390.266, 423.526 377.314 C 417.811 365.116, 409.867 358.111, 396.714 353.670 C 390.779 351.666, 388.168 351.556, 338.480 351.223 C 309.869 351.031, 286.131 351.202, 285.730 351.603 M 621.667 351.667 C 621.300 352.033, 621 419.533, 621 501.667 L 621 651 683 651 L 745 651 745 622 L 745 593 713.487 593 L 681.974 593 682.237 558.750 L 682.500 524.500 710.750 524.234 L 739 523.969 739 496 L 739 468.031 710.750 467.766 L 682.500 467.500 682.500 438.500 L 682.500 409.500 711.750 409.235 L 741 408.970 741 379.985 L 741 351 681.667 351 C 649.033 351, 622.033 351.300, 621.667 351.667 M 850.623 362.987 C 846.841 364.601, 843.561 366.105, 843.336 366.331 C 842.365 367.302, 845.528 372.094, 847.460 372.579 C 849.922 373.197, 857.907 370.022, 859.886 367.638 C 860.992 366.305, 861.013 365.446, 860 363.001 C 859.317 361.350, 858.474 360.012, 858.129 360.027 C 857.783 360.042, 854.405 361.374, 850.623 362.987 M 149.485 382.250 C 147.331 388.210, 146.022 392.345, 146.239 392.509 C 149.691 395.122, 195.440 417.954, 196.024 417.355 C 196.483 416.885, 197.155 415.299, 197.517 413.831 C 198.100 411.471, 197.697 410.891, 194.037 408.831 C 190.561 406.874, 189.974 406.099, 190.376 404 C 191.420 398.550, 192.963 395.855, 194.751 396.358 C 202.098 398.427, 202.576 398.308, 204.272 393.988 C 205.462 390.961, 205.571 389.792, 204.691 389.510 C 202.527 388.816, 154.153 381, 152.024 381 C 150.876 381, 149.734 381.563, 149.485 382.250 M 159 390.385 C 159 390.715, 164.369 393.676, 170.931 396.966 L 182.863 402.947 184.048 399.354 C 185.566 394.756, 185.464 394.697, 172.196 392.520 C 166.362 391.563, 161.006 390.556, 160.294 390.283 C 159.582 390.009, 159 390.056, 159 390.385 M 346 434.500 L 346 462 355.364 462 C 364.150 462, 364.890 461.837, 367.366 459.361 C 371.553 455.174, 373.001 448.411, 372.994 433.068 C 372.988 418.061, 372.004 412.913, 368.463 409.372 C 366.282 407.191, 365.283 407, 356.045 407 L 346 407 346 434.500 M 863 417.001 C 858.875 417.989, 851.900 419.587, 847.500 420.552 C 841.020 421.974, 838.860 422.947, 836.131 425.673 C 832.916 428.884, 832.782 429.311, 833.195 435.020 C 833.548 439.906, 834.152 441.549, 836.489 443.989 C 838.063 445.631, 840.762 447.240, 842.487 447.564 C 845.507 448.130, 875.051 442.227, 881.270 439.815 C 890.081 436.398, 891.754 424.310, 884.364 417.462 C 882.159 415.418, 880.756 415.017, 876.104 415.103 C 873.022 415.159, 867.125 416.014, 863 417.001 M 858.783 426.861 C 850.139 428.862, 842.563 431.011, 841.948 431.635 C 841.334 432.259, 840.981 433.788, 841.165 435.033 C 841.841 439.600, 843.823 439.661, 861.655 435.659 C 870.875 433.590, 878.999 431.415, 879.709 430.826 C 881.332 429.480, 881.382 425.782, 879.800 424.200 C 878.138 422.538, 876.629 422.729, 858.783 426.861 M 138.315 442.406 C 129.679 446.318, 129.328 461.015, 137.765 465.378 C 141.500 467.310, 174.421 472.199, 178.517 471.431 C 183.511 470.494, 187.197 466.040, 187.730 460.297 C 188.646 450.434, 184.770 446.860, 171.126 444.988 C 157.511 443.120, 158.690 442.772, 157.773 448.930 C 156.877 454.952, 157.515 455.958, 162.250 455.985 C 164.140 455.995, 165 455.486, 165 454.358 C 165 452.943, 165.852 452.804, 171.148 453.358 C 178.048 454.079, 180 455.213, 180 458.500 C 180 463.377, 178.246 463.567, 159.218 460.752 C 145.581 458.735, 141.285 457.742, 140.289 456.380 C 138.576 454.038, 138.656 453.344, 140.890 451.110 C 142.373 449.627, 143.744 449.330, 147.267 449.727 L 151.754 450.232 152.235 446.366 C 152.500 444.240, 152.644 442.402, 152.557 442.282 C 152.469 442.162, 149.946 441.816, 146.949 441.513 C 143.281 441.143, 140.459 441.434, 138.315 442.406 M 861 481.050 C 853.025 481.434, 845.263 481.805, 843.750 481.874 C 841.231 481.989, 841 482.335, 841 485.987 L 841 489.974 848.250 489.508 C 861.668 488.646, 880.338 487.996, 879.917 488.406 C 879.688 488.630, 871.175 491.381, 861 494.519 C 850.825 497.658, 842.269 500.361, 841.986 500.526 C 841.703 500.691, 841.626 502.778, 841.816 505.163 L 842.159 509.500 869.330 508.358 C 884.273 507.729, 896.612 507.167, 896.750 507.108 C 896.888 507.048, 897 505.357, 897 503.349 L 897 499.699 881.260 500.273 C 872.604 500.589, 866.191 500.508, 867.010 500.092 C 867.830 499.677, 874.913 497.359, 882.750 494.942 L 897 490.547 897 486.855 C 897 480.038, 896.902 479.981, 885.643 480.175 C 880.064 480.272, 868.975 480.665, 861 481.050 M 839.557 545.549 C 839.180 547.560, 839.013 549.345, 839.186 549.516 C 839.358 549.688, 847.825 551.031, 858 552.500 C 874.899 554.941, 879.743 555.902, 875.917 556.057 C 875.137 556.089, 866.181 557.113, 856.013 558.334 L 837.525 560.553 836.857 564.527 C 836.489 566.712, 836.483 568.786, 836.844 569.136 C 837.864 570.125, 889.060 577.191, 890.685 576.567 C 891.634 576.203, 892.020 574.898, 891.814 572.757 L 891.500 569.500 876.500 567.391 C 868.250 566.232, 862.175 565.038, 863 564.740 C 863.825 564.441, 871.025 563.438, 879 562.511 C 886.975 561.583, 893.583 560.743, 893.685 560.644 C 893.786 560.545, 894.176 558.157, 894.550 555.337 C 895.360 549.231, 898.497 550.314, 867.500 546 C 855.400 544.316, 844.317 542.703, 842.871 542.416 C 840.500 541.945, 840.175 542.252, 839.557 545.549 M 156 549.047 C 128.554 553.262, 131 552.534, 131 556.486 C 131 558.354, 131.402 560.130, 131.892 560.434 C 132.383 560.737, 141.721 559.619, 152.642 557.950 C 163.564 556.281, 174.075 555.047, 176 555.208 C 179.144 555.470, 179.532 555.830, 179.813 558.743 C 180.064 561.345, 179.669 562.177, 177.813 562.956 C 176.541 563.490, 166.076 565.305, 154.557 566.990 C 143.038 568.675, 133.505 570.162, 133.371 570.296 C 133.238 570.429, 133.381 572.420, 133.689 574.719 C 134.207 578.583, 134.449 578.864, 136.875 578.429 C 138.319 578.170, 147.150 576.841, 156.500 575.475 C 179.929 572.052, 182.511 571.370, 185.494 567.825 C 189.090 563.551, 189.062 555.416, 185.436 551.106 C 183.348 548.625, 177.200 545.680, 175 546.108 C 174.725 546.162, 166.175 547.484, 156 549.047 M 170.188 610.925 C 156.266 615.715, 144.899 620.054, 144.927 620.567 C 145.015 622.158, 146.869 627, 147.390 627 C 147.662 627, 154.284 624.749, 162.106 621.997 C 169.928 619.246, 176.446 617.113, 176.591 617.258 C 176.797 617.463, 165.833 625.035, 150.709 635.133 C 149.903 635.671, 152.516 646, 153.459 646 C 153.690 646, 199.316 630.444, 204.675 628.538 C 205.556 628.225, 205.576 627.230, 204.757 624.560 C 204.156 622.602, 203.357 621, 202.981 621 C 202.606 621, 194.518 623.712, 185.008 627.026 C 175.499 630.340, 167.551 632.884, 167.346 632.679 C 167.070 632.403, 188.301 617.882, 199.140 610.934 C 200.179 610.268, 197.764 602.705, 196.419 602.414 C 195.913 602.305, 184.110 606.135, 170.188 610.925 M 824.936 611.750 C 823.160 617.112, 821.517 622.017, 821.285 622.650 C 820.909 623.675, 827.697 626.714, 828.431 625.850 C 828.595 625.657, 829.736 622.432, 830.968 618.683 C 832.286 614.671, 833.679 612.039, 834.354 612.287 C 834.984 612.518, 838.504 613.699, 842.177 614.911 L 848.853 617.114 846.924 622.721 C 845.863 625.805, 845.108 628.413, 845.247 628.516 C 845.892 628.994, 852.348 630.980, 852.527 630.755 C 852.639 630.615, 853.502 628.138, 854.446 625.250 C 855.389 622.362, 856.487 620, 856.886 620 C 857.580 620, 870.235 624.084, 870.748 624.474 C 870.884 624.578, 869.906 627.865, 868.575 631.779 L 866.155 638.896 869.644 640.048 C 871.564 640.681, 873.336 640.998, 873.582 640.751 C 874.781 639.552, 880.904 619.514, 880.251 618.926 C 879.314 618.083, 830.932 602, 829.332 602 C 828.690 602, 826.712 606.388, 824.936 611.750 M 808.154 654.371 C 804.266 659.308, 804.064 659.084, 820.995 668.559 C 829.733 673.450, 836.783 677.551, 836.661 677.672 C 836.539 677.794, 829.051 675.218, 820.020 671.947 C 810.990 668.676, 803.088 666, 802.461 666 C 801.834 666, 800.701 667.237, 799.943 668.750 C 799.184 670.263, 798.421 671.775, 798.245 672.110 C 798.070 672.446, 804.468 677.768, 812.463 683.938 C 826.748 694.960, 830.182 698.083, 823.750 694.203 C 821.962 693.124, 815.100 689.208, 808.500 685.500 C 801.900 681.792, 796.169 678.565, 795.765 678.329 C 795.361 678.094, 794.132 679.378, 793.034 681.184 C 791.470 683.756, 791.304 684.706, 792.269 685.576 C 792.946 686.185, 803.802 692.416, 816.392 699.421 C 834.075 709.259, 839.489 711.855, 840.181 710.829 C 842.889 706.815, 845.055 701.658, 844.331 700.951 C 843.874 700.505, 837.025 695.159, 829.112 689.070 C 821.199 682.982, 815.079 678, 815.513 678 C 815.947 678, 823.701 680.700, 832.744 684 C 841.787 687.300, 849.776 690, 850.498 690 C 852.225 690, 857.448 681.044, 856.350 679.964 C 855.883 679.504, 845.047 673.304, 832.272 666.185 C 816.050 657.147, 808.775 653.583, 808.154 654.371 M 195.500 671.107 C 182.850 678.265, 172.133 684.485, 171.684 684.928 C 171.234 685.371, 171.712 687.123, 172.746 688.822 L 174.624 691.911 186.930 684.879 C 193.698 681.011, 199.970 677.584, 200.868 677.264 C 201.766 676.943, 197.136 681.830, 190.580 688.123 L 178.660 699.564 181.425 704.282 C 182.946 706.877, 184.332 709, 184.505 709 C 184.768 709, 207.762 696.147, 227.692 684.860 L 232.885 681.919 230.908 678.569 L 228.931 675.218 213.716 683.718 C 205.347 688.393, 198.073 692.619, 197.550 693.109 C 197.028 693.599, 196.128 693.979, 195.550 693.953 C 194.973 693.927, 201.004 687.678, 208.953 680.066 L 223.406 666.226 221.551 662.113 C 220.531 659.851, 219.427 658.020, 219.098 658.045 C 218.769 658.070, 208.150 663.948, 195.500 671.107 M 764.162 720.580 C 760.223 725.332, 757 729.535, 757 729.921 C 757 730.308, 758.301 731.586, 759.891 732.761 L 762.782 734.899 767.130 729.449 C 769.522 726.452, 771.862 724, 772.330 724 C 773.543 724, 784 733.066, 784 734.119 C 784 734.600, 782.438 736.724, 780.528 738.837 L 777.056 742.680 779.956 745.457 L 782.855 748.235 786.177 744.478 C 788.005 742.412, 789.792 740.269, 790.149 739.716 C 790.775 738.744, 802 747.624, 802 749.091 C 802 749.482, 799.979 752.209, 797.509 755.151 L 793.017 760.500 795.564 762.750 C 796.965 763.987, 798.465 765, 798.896 765 C 799.617 765, 811.672 751.057, 813.328 748.309 C 813.788 747.545, 806.671 740.902, 793.507 729.809 C 782.210 720.289, 772.598 712.374, 772.146 712.221 C 771.694 712.067, 768.101 715.829, 764.162 720.580 M 244.500 714.215 C 240.790 716.355, 215.511 737.827, 214.250 739.909 C 210.760 745.672, 214.325 754.931, 221.361 758.379 C 224.562 759.948, 225.799 760.077, 228.848 759.163 C 232.078 758.195, 248.456 745.496, 257.869 736.662 C 265.104 729.872, 265.141 723.070, 257.977 716.598 C 253.712 712.745, 248.612 711.843, 244.500 714.215 M 249.159 721.727 C 247.168 722.470, 222.640 742.953, 221.639 744.708 C 220.304 747.051, 222.565 751.003, 225.229 750.984 C 226.642 750.974, 232.602 746.714, 241 739.711 C 251.325 731.101, 254.500 727.900, 254.500 726.099 C 254.500 723.537, 251.309 720.925, 249.159 721.727 M 730.591 755.250 L 728.070 757.500 740.129 771.823 C 746.762 779.700, 752.033 786.294, 751.844 786.476 C 751.655 786.658, 744.559 781.900, 736.077 775.903 C 727.594 769.906, 720.169 765.014, 719.577 765.032 C 718.984 765.049, 717.220 766.189, 715.655 767.565 L 712.810 770.067 717.346 775.577 C 719.841 778.607, 727.850 788.225, 735.145 796.950 L 748.408 812.814 751.149 810.657 C 752.656 809.471, 753.914 808.257, 753.945 807.960 C 753.975 807.664, 750.063 802.681, 745.250 796.887 C 740.438 791.094, 735.825 785.504, 735 784.466 C 733.609 782.716, 743.328 789.164, 755.784 798.257 L 761.069 802.114 765.092 798.927 C 767.377 797.117, 768.894 795.165, 768.603 794.407 C 767.838 792.415, 734.798 753, 733.892 753 C 733.463 753, 731.977 754.013, 730.591 755.250 M 287.500 756.109 C 284.494 757.835, 276.992 765.268, 277.055 766.458 C 277.086 767.031, 278.397 768.514, 279.968 769.754 L 282.826 772.008 286.040 767.950 C 289.674 763.361, 293.210 762.889, 295.700 766.662 C 297.046 768.701, 296.497 769.577, 285.972 782.162 C 279.837 789.498, 273.983 795.895, 272.964 796.378 C 270.620 797.489, 268.426 796.664, 267.091 794.171 C 266.257 792.612, 266.631 791.429, 268.990 788.173 L 271.928 784.117 268.866 781.541 L 265.805 778.965 262.411 783.233 C 258.012 788.764, 257.132 793.233, 259.556 797.733 C 261.440 801.233, 268.292 806, 271.437 806 C 275.658 806, 280.355 802.202, 289.642 791.281 C 305.629 772.478, 306.979 769.728, 303.515 763.029 C 300.531 757.259, 291.953 753.552, 287.500 756.109 M 333.078 789.112 C 330.820 792.825, 330.473 792.358, 339.264 797.448 L 344.028 800.207 340.870 805.853 C 336.004 814.551, 335.916 814.603, 331.144 811.591 C 328.886 810.166, 326.633 809, 326.135 809 C 325.174 809, 321.999 813.390, 322.001 814.715 C 322.002 815.147, 324.214 816.742, 326.917 818.261 L 331.833 821.021 328.166 827.481 C 326.150 831.034, 324.126 833.954, 323.668 833.970 C 323.211 833.987, 320.117 832.406, 316.793 830.458 C 313.470 828.510, 310.639 827.048, 310.502 827.208 C 310.366 827.369, 309.524 828.937, 308.631 830.694 L 307.007 833.887 316.448 839.444 C 321.640 842.500, 326.315 845, 326.837 845 C 327.744 845, 355 799.705, 355 798.197 C 355 797.519, 351.695 795.427, 339.782 788.565 L 335.064 785.847 333.078 789.112 M 676.250 793.985 C 674.462 795.077, 673 796.214, 673 796.511 C 673 796.808, 678.175 806.086, 684.500 817.129 C 690.825 828.171, 696 837.356, 696 837.539 C 696 837.722, 694.248 838.857, 692.107 840.060 L 688.214 842.248 690.222 845.652 L 692.230 849.055 696.365 846.675 C 711.823 837.776, 715 835.855, 715 835.406 C 715 834.574, 711.982 829, 711.531 829 C 711.302 829, 709.494 829.956, 707.514 831.124 C 705.535 832.292, 703.761 833.080, 703.574 832.874 C 703.386 832.668, 698.478 824.175, 692.666 814 C 678.876 789.858, 680.254 791.539, 676.250 793.985 M 381.505 819.750 C 378.315 828.610, 377.264 835.664, 378.892 837.292 C 380.454 838.854, 380.268 840, 378.452 840 C 375.804 840, 372.193 844.910, 370.005 851.484 C 367.551 858.858, 368.014 861.993, 372.059 865.397 C 374.861 867.754, 388.715 873.618, 389.538 872.795 C 390.856 871.477, 408.905 821.520, 408.268 820.954 C 407.846 820.580, 406.070 819.796, 404.323 819.214 L 401.147 818.155 397.444 827.828 C 395.408 833.147, 393.418 837.859, 393.023 838.298 C 392.065 839.362, 387.257 837.113, 386.550 835.269 C 386.242 834.466, 387.342 829.932, 388.995 825.193 C 390.648 820.453, 392 816.198, 392 815.737 C 392 815.049, 386.027 812, 384.680 812 C 384.469 812, 383.040 815.487, 381.505 819.750 M 626.250 817.247 C 624.462 817.820, 623 818.682, 623 819.163 C 623 819.811, 634.147 850.686, 638.713 862.685 C 638.978 863.380, 637.476 864.376, 635.082 865.094 C 632.819 865.772, 631 866.944, 631 867.724 C 631 868.851, 632.507 872.532, 633.466 873.747 C 633.573 873.883, 639.025 872.012, 645.581 869.590 C 657.030 865.359, 657.492 865.077, 657.290 862.433 C 656.978 858.349, 655.724 857.606, 651.500 859 C 649.474 859.669, 647.471 859.830, 647.051 859.358 C 646.630 858.886, 642.779 848.938, 638.492 837.250 C 634.206 825.563, 630.430 816.046, 630.100 816.102 C 629.770 816.158, 628.038 816.673, 626.250 817.247 M 382.330 845.732 C 380.561 846.922, 376.962 856.739, 377.644 858.515 C 377.973 859.373, 379.521 860.735, 381.083 861.543 C 383.662 862.876, 384.004 862.850, 384.801 861.256 C 386.624 857.609, 390.249 846.916, 389.811 846.478 C 388.853 845.520, 383.448 844.981, 382.330 845.732" stroke="none" fill="#7cdb54" fill-rule="evenodd"/></svg>