<?xml version="1.0" standalone="no"?>
<!DOCTYPE svg PUBLIC "-//W3C//DTD SVG 20010904//EN"
 "http://www.w3.org/TR/2001/REC-SVG-20010904/DTD/svg10.dtd">
<svg version="1.0" xmlns="http://www.w3.org/2000/svg"
 width="1300.000000pt" height="1300.000000pt" viewBox="0 0 1300.000000 1300.000000"
 preserveAspectRatio="xMidYMid meet">

<g transform="translate(0.000000,1300.000000) scale(0.100000,-0.100000)"
fill="#000000" stroke="none">
<path d="M6225 11639 c-927 -57 -1776 -337 -2535 -834 -911 -596 -1614 -1467
-1995 -2470 -253 -667 -372 -1397 -336 -2067 24 -463 72 -758 195 -1212 49
-178 163 -487 259 -696 266 -584 607 -1074 1066 -1530 943 -938 2172 -1462
3511 -1496 755 -20 1495 126 2200 432 110 47 439 217 560 289 187 111 506 335
638 449 337 290 561 521 793 815 340 432 641 988 812 1501 138 413 210 753
259 1220 17 162 17 744 0 900 -31 283 -43 358 -88 585 -169 858 -582 1686
-1182 2375 -101 116 -375 386 -497 491 -798 686 -1769 1110 -2800 1223 -302
33 -591 42 -860 25z m771 -104 c396 -40 766 -119 1129 -240 1005 -337 1885
-986 2507 -1850 334 -465 595 -1004 753 -1555 66 -234 81 -299 130 -575 77
-440 87 -1005 25 -1481 -109 -834 -422 -1625 -916 -2311 -222 -309 -470 -581
-794 -869 -70 -62 -223 -183 -352 -277 -402 -293 -892 -543 -1358 -695 -199
-64 -247 -78 -385 -112 -222 -53 -190 -46 -410 -85 -578 -100 -1271 -82 -1878
51 -449 97 -820 229 -1232 439 -807 410 -1487 1027 -1972 1790 -699 1098 -946
2402 -702 3695 11 58 41 186 66 285 304 1200 1050 2257 2083 2951 238 160 464
286 755 419 537 247 1207 407 1835 439 144 7 568 -4 716 -19z"/>
<path d="M6341 11238 c-88 -42 -102 -52 -90 -63 12 -12 29 -9 113 16 55 16
101 31 103 33 2 2 -2 17 -9 33 l-13 30 -104 -49z"/>
<path d="M5758 11213 c-35 -4 -38 -7 -38 -36 0 -53 9 -59 70 -47 29 6 55 11
56 13 2 2 1 20 -3 40 -6 40 -2 38 -85 30z"/>
<path d="M6953 11141 c-23 -41 -33 -51 -63 -56 -61 -11 -70 -16 -70 -39 0 -20
6 -24 41 -29 22 -3 43 -8 46 -11 3 -3 0 -39 -6 -81 -19 -130 -25 -269 -12
-293 17 -32 60 -50 142 -60 41 -5 74 -9 75 -8 1 0 4 18 7 38 l5 36 -74 7 c-44
5 -74 12 -74 19 0 46 33 323 40 329 4 5 40 5 79 0 39 -5 73 -7 76 -5 3 3 5 20
5 37 l0 32 -77 9 -77 9 3 58 c2 51 0 57 -18 57 -13 0 -29 -16 -48 -49z"/>
<path d="M6310 11111 c-119 -26 -182 -114 -182 -256 -1 -123 42 -204 129 -245
41 -19 60 -22 133 -18 126 6 195 49 220 138 9 30 8 32 -13 26 -12 -3 -32 -6
-44 -6 -14 0 -29 -11 -39 -30 -24 -39 -70 -60 -136 -60 -85 0 -139 43 -153
121 l-7 36 69 6 c37 4 128 7 202 7 l133 0 -7 48 c-16 112 -53 175 -125 212
-44 22 -129 32 -180 21z m135 -81 c41 -20 75 -69 75 -109 0 -17 -14 -19 -146
-26 -80 -4 -148 -4 -151 -1 -3 3 -2 21 1 40 18 96 125 142 221 96z"/>
<path d="M5798 11053 c-29 -3 -38 -9 -38 -23 0 -24 68 -472 72 -475 2 -1 22 0
46 3 48 5 49 8 33 103 -5 30 -17 101 -26 159 -32 214 -37 240 -43 238 -4 -1
-24 -3 -44 -5z"/>
<path d="M8165 10988 c-3 -7 -58 -152 -124 -323 l-119 -310 37 -17 c20 -10 41
-18 46 -18 6 0 25 42 43 93 18 50 39 106 47 122 7 17 44 113 83 215 39 102 73
193 77 202 5 13 -2 21 -30 32 -45 19 -54 20 -60 4z"/>
<path d="M7487 10976 c-45 -17 -74 -41 -93 -78 -16 -31 -13 -33 39 -43 33 -6
40 -4 66 24 23 24 37 31 68 31 93 0 161 -46 148 -100 -11 -46 -28 -51 -165
-44 -107 6 -130 4 -158 -10 -47 -24 -72 -71 -72 -133 0 -88 67 -143 175 -143
62 0 85 9 129 49 l28 26 -7 -35 c-3 -19 -9 -42 -11 -52 -6 -20 0 -24 49 -33
30 -6 37 -4 37 9 0 9 18 89 40 177 45 182 49 228 20 274 -40 65 -209 112 -293
81z m188 -319 c-40 -100 -133 -144 -215 -102 -53 27 -64 74 -29 119 20 25 24
26 122 26 56 0 109 5 117 10 22 14 24 -5 5 -53z"/>
<path d="M5235 10943 c-68 -23 -137 -93 -154 -155 -26 -93 8 -225 75 -292 64
-64 162 -82 262 -50 100 33 162 110 162 204 0 55 1 54 -51 40 -32 -9 -36 -14
-37 -46 -2 -53 -23 -86 -70 -113 -56 -30 -131 -33 -170 -5 -35 26 -79 116 -87
180 -12 90 32 152 124 173 57 13 103 -2 141 -45 30 -35 31 -35 70 -22 l40 13
-18 35 c-11 19 -35 48 -55 64 -31 25 -46 29 -109 32 -51 3 -88 -1 -123 -13z"/>
<path d="M4551 10689 c-65 -26 -134 -91 -151 -143 -18 -55 -9 -162 18 -217 26
-54 79 -112 125 -136 53 -28 150 -22 220 12 106 53 152 128 145 235 -8 103
-70 204 -150 246 -51 27 -143 28 -207 3z m138 -60 c70 -25 155 -192 132 -262
-15 -45 -56 -83 -110 -102 -60 -21 -92 -19 -131 8 -60 40 -121 181 -106 242
10 39 65 90 118 108 54 19 58 19 97 6z"/>
<path d="M8453 10591 c-95 -45 -166 -159 -167 -271 -1 -110 43 -169 168 -226
74 -34 155 -31 210 7 45 30 45 42 3 63 -32 14 -36 14 -73 -5 -46 -24 -88 -19
-144 16 -65 41 -83 72 -78 138 2 31 9 62 15 68 11 11 119 -41 302 -144 60 -34
58 -35 91 51 33 88 22 163 -35 230 -69 80 -204 114 -292 73z m201 -88 c54 -38
73 -90 57 -151 l-12 -43 -127 67 c-70 37 -131 71 -136 75 -11 10 38 66 69 80
36 16 105 3 149 -28z"/>
<path d="M3877 10480 c-132 -33 -267 -167 -267 -264 1 -67 61 -152 125 -176
45 -17 100 -3 218 57 133 67 173 71 221 24 25 -26 31 -39 31 -76 0 -38 -6 -50
-40 -85 -73 -74 -179 -109 -238 -79 -12 6 -32 21 -44 32 l-22 20 -36 -24 c-19
-13 -35 -28 -35 -33 0 -17 63 -65 107 -82 58 -22 127 -13 201 26 122 65 202
161 202 241 0 53 -46 136 -91 166 -60 39 -120 30 -264 -40 -134 -66 -164 -70
-206 -28 -61 62 -30 152 74 211 66 38 120 40 170 6 l35 -24 37 25 37 25 -24
25 c-47 50 -119 70 -191 53z"/>
<path d="M9380 10001 c-129 -40 -233 -170 -233 -292 0 -65 21 -107 82 -162 47
-42 100 -61 152 -54 44 6 48 -1 19 -28 -27 -24 -24 -35 14 -67 l32 -27 100
111 c54 61 159 176 232 256 72 80 132 148 132 151 0 3 -16 19 -35 34 l-36 28
-47 -52 c-26 -29 -68 -76 -94 -104 l-47 -50 -1 44 c-1 132 -149 249 -270 212z
m146 -116 c111 -85 96 -208 -36 -306 -72 -54 -131 -48 -201 20 -54 53 -66 87
-50 141 13 46 96 140 143 164 44 22 100 15 144 -19z"/>
<path d="M2886 9588 c-31 -100 -35 -129 -19 -135 7 -3 33 37 63 96 l50 101
-25 10 c-15 6 -30 10 -35 10 -5 0 -21 -37 -34 -82z"/>
<path d="M3080 9575 c-85 -38 -160 -149 -160 -235 0 -94 76 -199 177 -247 72
-33 113 -38 167 -20 139 48 234 219 181 330 -20 44 -27 45 -53 12 -16 -20 -19
-36 -15 -87 4 -58 2 -66 -26 -104 -17 -23 -50 -51 -75 -64 -39 -21 -48 -23
-84 -12 -22 7 -50 20 -63 31 l-22 18 127 148 126 148 -20 22 c-57 61 -189 91
-260 60z m137 -82 c40 -19 41 -18 -75 -150 -99 -112 -97 -112 -137 -34 -14 29
-15 40 -5 77 21 73 105 140 160 128 14 -3 40 -12 57 -21z"/>
<path d="M9869 9436 c-163 -58 -250 -221 -189 -354 29 -65 115 -145 172 -161
47 -13 123 -8 134 10 3 5 -5 22 -18 38 -19 24 -30 28 -69 28 -56 -1 -88 18
-129 75 -42 57 -42 119 0 176 34 47 40 50 56 24 10 -15 140 -181 208 -264 l23
-28 40 35 c123 105 121 264 -3 374 -68 59 -145 76 -225 47z m197 -119 c56 -59
66 -105 34 -163 -12 -24 -28 -45 -36 -48 -10 -4 -45 33 -104 107 -49 61 -90
116 -90 120 0 17 66 37 110 33 37 -3 51 -11 86 -49z"/>
<path d="M2660 9045 c-23 -36 -44 -65 -46 -65 -3 0 -22 11 -44 25 -48 30 -57
31 -65 4 -5 -15 2 -32 24 -60 l32 -39 -15 -55 c-14 -53 -13 -56 7 -67 17 -9
23 -8 32 7 38 65 27 67 190 -34 94 -58 159 -91 176 -91 36 0 87 44 130 112
l33 51 -23 18 c-34 28 -43 24 -76 -32 -16 -28 -33 -55 -36 -61 -5 -8 -201 107
-283 167 -18 13 -17 17 24 81 33 53 39 69 28 76 -45 30 -44 30 -88 -37z"/>
<path d="M10283 8870 c-66 -40 -73 -109 -24 -235 38 -99 39 -127 5 -154 -54
-42 -106 -16 -143 70 -25 58 -23 98 8 139 19 24 19 25 -1 64 l-21 41 -37 -43
c-69 -77 -59 -181 29 -300 60 -81 125 -101 202 -62 87 45 98 117 39 267 -37
94 -35 124 9 143 44 18 83 -7 116 -75 l27 -55 -20 -41 c-21 -42 -21 -42 -1
-81 16 -32 23 -37 38 -29 10 6 26 27 36 47 43 91 -21 260 -116 309 -40 21
-108 19 -146 -5z"/>
<path d="M2235 8643 c-11 -26 -21 -50 -23 -53 -1 -3 13 -14 32 -23 26 -12 37
-13 44 -4 14 18 42 75 42 86 0 10 -51 41 -67 41 -4 0 -17 -21 -28 -47z"/>
<path d="M2382 8564 l-22 -44 221 -110 c122 -61 222 -110 224 -108 8 9 35 68
35 76 0 5 -98 59 -218 120 l-219 110 -21 -44z"/>
<path d="M2038 8293 c-16 -43 -15 -45 5 -53 12 -5 153 -62 312 -126 160 -64
295 -118 301 -120 14 -6 50 74 38 85 -5 5 -22 13 -39 19 -16 6 -142 56 -280
112 -137 56 -266 108 -285 115 l-36 13 -16 -45z"/>
<path d="M10697 7921 c-245 -68 -307 -89 -304 -101 3 -8 33 -116 68 -240 34
-124 63 -226 64 -227 0 -1 18 3 38 9 30 9 36 15 31 31 -3 10 -17 58 -30 105
-13 48 -34 126 -48 174 l-24 88 66 19 c103 30 146 41 149 38 1 -2 24 -81 50
-176 l47 -173 34 6 c19 3 36 7 39 9 3 4 -77 301 -93 341 -4 11 12 20 67 36 39
12 86 24 103 27 l31 5 23 -89 c26 -104 70 -263 76 -280 4 -8 14 -9 37 -3 17 5
34 11 36 14 4 4 -50 206 -108 409 -11 37 -25 66 -32 66 -7 -1 -151 -40 -320
-88z"/>
<path d="M1956 7962 c-2 -4 -8 -23 -14 -42 -5 -19 -13 -43 -17 -52 -5 -13 2
-19 31 -27 21 -6 41 -7 45 -3 8 8 40 104 36 108 -8 7 -78 21 -81 16z"/>
<path d="M2101 7873 c-16 -56 -15 -60 27 -71 20 -5 73 -21 117 -35 44 -14 123
-39 175 -55 52 -16 105 -32 116 -36 19 -6 24 -1 37 38 l16 46 -132 41 c-194
60 -310 97 -329 104 -13 5 -19 -2 -27 -32z"/>
<path d="M6725 7724 c-232 -27 -334 -52 -459 -116 -157 -78 -258 -176 -325
-313 -51 -104 -71 -198 -71 -332 0 -229 57 -388 189 -527 102 -107 237 -189
526 -321 217 -98 280 -133 333 -186 54 -54 69 -102 52 -163 -27 -98 -110 -146
-264 -153 -218 -11 -486 48 -759 168 -48 22 -90 39 -92 39 -3 0 -5 -139 -5
-309 l0 -308 68 -31 c97 -43 251 -89 367 -109 76 -13 158 -17 340 -17 209 1
253 3 339 22 406 90 658 336 706 692 13 94 6 232 -16 320 -54 211 -211 375
-489 510 -431 208 -498 243 -539 283 -89 86 -79 198 24 256 126 70 409 36 713
-87 53 -22 99 -37 101 -33 11 18 206 514 206 524 0 14 -16 21 -160 74 -243 89
-583 140 -785 117z"/>
<path d="M3490 6385 l0 -1305 350 0 350 0 0 475 0 475 89 0 c59 0 92 -4 99
-12 6 -7 44 -71 85 -143 41 -71 122 -211 179 -310 58 -99 145 -249 194 -332
l88 -153 398 0 398 0 -371 556 c-204 306 -373 562 -375 569 -3 8 21 30 63 57
131 85 232 194 293 315 95 193 101 471 14 670 -110 252 -372 397 -784 433 -63
5 -330 10 -592 10 l-478 0 0 -1305z m1039 746 c117 -45 179 -148 168 -277 -19
-208 -133 -294 -388 -294 l-119 0 0 301 0 302 143 -5 c111 -4 154 -10 196 -27z"/>
<path d="M8090 6387 c0 -717 2 -1306 4 -1308 2 -2 351 -3 775 -1 l771 2 0 285
0 285 -425 0 -425 0 0 250 0 250 395 0 395 0 0 280 0 280 -395 0 -395 0 0 210
0 210 425 0 425 0 0 280 0 280 -775 0 -775 0 0 -1303z"/>
<path d="M2085 7504 c-85 -31 -135 -111 -135 -215 0 -55 5 -72 30 -112 16 -26
29 -47 27 -47 -1 0 -62 11 -135 24 -93 16 -135 20 -137 12 -2 -6 -6 -27 -9
-47 l-6 -36 157 -27 c87 -15 232 -40 323 -57 187 -33 210 -35 210 -15 0 7 3
27 6 43 6 29 4 30 -38 37 l-43 7 38 20 c20 11 49 38 65 61 38 58 44 175 13
236 -52 102 -241 162 -366 116z m235 -115 c58 -31 83 -78 76 -137 -14 -106
-63 -152 -161 -152 -85 0 -134 16 -177 60 -35 34 -38 42 -38 93 0 66 20 118
57 147 25 20 37 22 113 18 67 -3 95 -9 130 -29z"/>
<path d="M10770 7166 l-205 -22 4 -44 c1 -25 4 -46 5 -48 2 -1 68 3 147 10
169 13 208 8 256 -36 30 -27 36 -41 41 -84 5 -61 -13 -97 -61 -117 -18 -7
-104 -20 -191 -29 -88 -9 -161 -18 -164 -20 -2 -3 -1 -23 3 -45 8 -49 5 -49
207 -26 169 19 209 30 247 67 38 37 44 60 39 141 -5 77 -31 118 -96 151 l-46
23 58 7 c45 6 56 11 52 23 -3 8 -6 28 -6 44 0 28 -2 29 -42 28 -24 -1 -135
-11 -248 -23z"/>
<path d="M1963 6739 c-60 -30 -88 -89 -88 -189 0 -96 31 -164 91 -197 62 -36
74 -31 74 25 0 43 -3 49 -29 59 -45 16 -63 53 -62 125 0 55 3 66 26 86 57 49
97 18 115 -89 31 -190 65 -239 167 -239 80 0 129 49 140 140 8 68 -17 130 -70
175 l-42 35 53 0 52 0 0 43 0 43 -192 2 c-179 2 -196 1 -235 -19z m288 -99
c86 -44 107 -185 32 -219 -62 -28 -96 5 -127 124 -13 50 -27 99 -31 109 -8 18
-5 19 38 13 26 -4 65 -16 88 -27z"/>
<path d="M11034 6454 l-7 -47 -153 7 c-239 11 -263 -3 -272 -156 l-5 -78 35 0
c33 0 36 2 42 38 3 20 6 53 6 73 l0 36 163 -4 c89 -3 168 -6 176 -9 10 -3 12
-21 6 -84 l-7 -80 41 0 41 0 0 80 0 80 60 0 c54 0 60 2 60 21 0 15 -14 26 -54
44 -51 23 -54 26 -66 74 -10 43 -16 51 -35 51 -21 0 -25 -6 -31 -46z"/>
<path d="M2210 6103 c-58 -30 -73 -70 -80 -206 -4 -102 -8 -121 -24 -133 -28
-20 -51 -17 -82 10 -24 20 -28 32 -32 89 -4 63 -3 68 27 97 31 32 41 79 23
107 -13 21 -74 -19 -100 -66 -35 -61 -33 -168 3 -244 21 -45 34 -60 70 -77 57
-27 113 -20 158 20 32 28 32 29 37 152 6 135 16 163 58 173 44 9 78 -9 91 -47
31 -99 18 -164 -39 -196 -29 -15 -31 -21 -27 -55 7 -49 10 -52 46 -38 51 22
89 68 100 123 20 92 -8 225 -59 273 -38 37 -117 45 -170 18z"/>
<path d="M10575 5968 c-2 -7 -6 -29 -7 -48 l-3 -35 126 -21 c201 -33 254 -71
253 -176 -1 -55 0 -56 29 -62 47 -9 55 -7 62 15 12 38 -15 106 -56 144 -22 19
-39 37 -39 39 0 2 23 -1 51 -6 28 -5 53 -7 56 -4 7 7 22 80 18 85 -3 2 -100
19 -217 37 -117 19 -225 36 -241 40 -18 4 -29 1 -32 -8z"/>
<path d="M2440 5510 c-14 -4 -72 -22 -130 -40 -58 -17 -124 -38 -147 -47 -53
-19 -113 -78 -114 -112 -8 -130 37 -201 146 -233 l40 -11 -52 -15 c-57 -16
-60 -23 -40 -78 l12 -31 80 24 c44 14 151 46 237 71 172 51 163 44 137 113
l-10 27 -97 -30 c-53 -16 -113 -34 -132 -40 -19 -6 -62 -8 -97 -6 -52 3 -68 9
-92 32 -16 15 -35 48 -41 73 -11 38 -11 49 3 77 18 39 56 56 247 112 69 20
126 38 128 39 2 2 -2 21 -8 44 -11 43 -21 47 -70 31z"/>
<path d="M10581 5469 c-62 -12 -110 -54 -148 -129 -56 -108 -43 -234 29 -295
l32 -27 14 41 c13 38 12 42 -12 74 -34 45 -35 106 -1 173 27 55 71 84 128 84
70 0 72 15 -43 -363 -8 -25 -6 -29 18 -39 15 -6 59 -11 97 -12 60 0 78 4 118
27 26 16 58 45 72 65 54 83 58 211 10 284 -58 87 -198 139 -314 117z m248
-162 c51 -56 32 -188 -33 -228 -30 -18 -115 -27 -129 -13 -3 3 2 29 13 58 10
28 30 92 45 143 l28 92 26 -14 c14 -7 37 -24 50 -38z"/>
<path d="M10087 4934 c-10 -19 -15 -40 -11 -45 3 -5 58 -36 122 -68 l116 -58
-40 -13 c-86 -28 -144 -105 -152 -207 -10 -120 101 -233 258 -263 112 -21 208
35 250 147 24 64 25 92 5 140 -18 43 -14 50 17 29 12 -9 26 -16 30 -16 8 0 52
80 46 85 -8 8 -609 305 -616 305 -5 0 -16 -16 -25 -36z m368 -242 c83 -40 125
-89 125 -148 0 -55 -18 -99 -58 -141 -27 -29 -36 -33 -85 -33 -72 0 -168 48
-210 105 -25 35 -28 46 -23 85 12 85 84 160 156 160 19 0 62 -13 95 -28z"/>
<path d="M2507 4806 c-63 -23 -131 -81 -164 -141 -24 -44 -23 -148 3 -206 67
-146 201 -197 347 -131 104 48 167 134 167 229 0 86 -74 212 -144 244 -49 22
-153 24 -209 5z m193 -88 c43 -30 80 -100 80 -152 0 -80 -70 -143 -197 -176
-68 -17 -128 17 -164 95 -40 87 -11 162 81 210 95 49 151 56 200 23z"/>
<path d="M9922 4222 c-12 -15 -22 -33 -24 -39 -2 -6 45 -45 104 -87 164 -116
194 -173 145 -268 l-24 -47 36 -26 36 -25 17 22 c26 35 32 96 14 148 -8 24
-14 45 -12 47 1 1 19 -9 39 -22 20 -14 40 -25 46 -25 10 0 56 69 50 74 -2 2
-49 34 -104 72 -116 79 -209 145 -246 174 -44 33 -55 33 -77 2z"/>
<path d="M2909 4197 c-59 -22 -105 -55 -153 -108 -72 -80 -84 -159 -38 -250
34 -68 93 -114 159 -124 l48 -7 -23 -18 c-12 -10 -28 -20 -34 -22 -7 -3 -1
-18 18 -41 16 -21 34 -35 41 -33 10 4 75 50 218 156 61 45 191 139 274 199 34
24 61 47 61 50 0 3 -13 21 -28 39 l-27 33 -80 -58 c-44 -32 -93 -68 -110 -80
l-30 -21 0 73 c0 65 -3 78 -30 116 -53 74 -94 101 -167 105 -38 3 -77 -1 -99
-9z m186 -120 c55 -58 73 -118 51 -171 -20 -48 -71 -97 -130 -126 -85 -41
-168 -13 -216 72 -48 86 -20 156 93 229 49 32 69 39 110 39 46 0 54 -3 92 -43z"/>
<path d="M9622 3826 l-31 -34 57 -48 c31 -27 117 -100 191 -163 l133 -115 29
35 c16 19 27 37 26 41 -2 7 -364 318 -370 318 -2 0 -18 -15 -35 -34z"/>
<path d="M3373 3658 c-39 -28 -73 -86 -73 -125 0 -29 32 -87 104 -188 43 -62
44 -93 1 -121 -33 -22 -72 -6 -121 49 -35 38 -36 43 -31 92 5 48 3 55 -23 80
-33 32 -44 28 -60 -21 -25 -74 4 -148 85 -222 92 -84 179 -90 245 -16 54 62
42 120 -52 244 -58 76 -62 119 -16 153 36 27 73 16 125 -38 50 -53 63 -99 39
-145 -15 -31 -15 -33 14 -62 34 -33 41 -32 64 16 45 95 -9 216 -132 295 -61
39 -122 42 -169 9z"/>
<path d="M9398 3567 c-86 -28 -189 -133 -203 -205 -9 -47 10 -96 51 -131 68
-60 114 -54 244 29 52 33 100 60 107 60 20 0 63 -46 63 -68 0 -24 -47 -86 -82
-106 -29 -18 -89 -21 -104 -6 -7 7 -21 -2 -44 -25 -33 -34 -33 -35 -14 -49 64
-48 168 -20 250 66 76 79 93 149 53 215 -53 85 -128 83 -260 -6 -49 -33 -99
-61 -110 -61 -29 0 -69 44 -69 77 0 31 40 83 86 114 35 23 91 25 120 4 19 -13
24 -12 53 12 17 14 31 29 31 34 0 16 -58 48 -96 53 -21 3 -56 0 -76 -7z"/>
<path d="M10062 3452 l-41 -48 34 -27 33 -26 36 39 c19 21 37 43 38 48 2 5
-11 21 -29 35 l-31 27 -40 -48z"/>
<path d="M3840 3232 c-45 -25 -46 -34 -10 -60 28 -21 33 -22 72 -9 48 17 83
10 135 -25 35 -24 73 -89 73 -126 0 -28 -30 -102 -41 -102 -5 0 -77 50 -161
111 -116 85 -155 109 -167 102 -28 -16 -65 -104 -69 -164 -5 -73 22 -135 81
-183 116 -94 248 -87 346 19 113 123 120 263 18 362 -87 86 -200 116 -277 75z
m58 -289 c58 -43 110 -81 116 -86 14 -10 -45 -64 -80 -73 -61 -15 -163 47
-184 112 -10 30 -9 43 5 80 9 24 21 44 27 44 6 0 58 -35 116 -77z"/>
<path d="M8885 3151 c-122 -32 -222 -150 -213 -252 3 -27 7 -52 10 -55 3 -2
22 5 41 16 31 18 35 25 31 49 -17 86 109 190 202 167 14 -4 43 -23 65 -44 l39
-37 -165 -110 c-91 -60 -165 -114 -165 -118 0 -5 26 -34 58 -66 65 -66 122
-88 195 -77 60 9 143 62 181 114 26 37 31 54 34 117 5 88 -15 140 -79 210 -69
74 -156 107 -234 86z m235 -301 c0 -67 -41 -119 -118 -150 -43 -17 -102 0
-132 37 -26 33 -29 29 115 127 108 74 110 75 122 53 7 -12 12 -42 13 -67z"/>
<path d="M4435 2902 c-3 -15 -22 -60 -41 -100 -41 -88 -44 -133 -8 -179 l25
-33 -41 0 c-58 0 -104 -24 -136 -73 -54 -82 -40 -179 34 -235 20 -15 105 -61
191 -103 l156 -77 54 112 c30 61 96 195 147 297 l92 186 -44 21 -44 22 -65
-130 -65 -131 -101 52 c-105 54 -139 88 -139 138 0 13 16 58 35 101 45 100 45
113 -4 138 l-39 21 -7 -27z m106 -428 c63 -31 115 -57 116 -58 5 -5 -94 -190
-103 -193 -5 -1 -58 24 -119 55 -121 63 -142 86 -131 148 9 43 65 104 98 104
14 0 76 -25 139 -56z"/>
<path d="M8304 2816 c-66 -21 -137 -65 -166 -103 -52 -67 -31 -167 44 -213 43
-26 75 -25 180 6 107 31 148 29 166 -8 17 -36 1 -67 -51 -101 -50 -33 -104
-35 -140 -7 l-26 21 -41 -21 c-22 -11 -40 -25 -40 -30 0 -20 69 -60 112 -66
85 -12 207 44 255 115 31 45 30 107 0 152 -44 66 -93 73 -226 34 -47 -14 -95
-25 -108 -25 -32 0 -63 38 -63 76 0 40 43 77 111 95 54 14 94 6 122 -25 20
-23 20 -23 59 -4 21 10 38 22 38 26 0 15 -54 65 -86 78 -40 17 -85 17 -140 0z"/>
<path d="M5391 2499 c-16 -47 -14 -56 18 -62 16 -3 40 -9 54 -12 23 -6 27 -3
37 35 6 23 10 43 8 44 -6 5 -86 26 -96 26 -5 0 -15 -14 -21 -31z"/>
<path d="M7527 2517 c-37 -11 -38 -12 -32 -46 9 -50 13 -53 48 -45 73 15 76
19 65 63 -11 44 -16 46 -81 28z"/>
</g>
</svg>
